<?xml version="1.0" standalone="no"?><!DOCTYPE svg PUBLIC "-//W3C//DTD SVG 1.1//EN" "http://www.w3.org/Graphics/SVG/1.1/DTD/svg11.dtd"><svg t="1647401021302" class="icon" viewBox="0 0 1024 1024" version="1.1" xmlns="http://www.w3.org/2000/svg" p-id="2392" xmlns:xlink="http://www.w3.org/1999/xlink" width="64" height="64"><defs><style type="text/css"></style></defs><path d="M942.7968 409.7024a31.8464 31.8464 0 0 0-6.144-42.0864 31.5904 31.5904 0 0 0-43.6224 5.9392c-1.536 1.4848-174.4896 198.5536-380.8768 198.5536-199.68 0-380.8768-198.5536-382.4128-200.0384a32.768 32.768 0 0 0-43.6224-3.0208 30.0032 30.0032 0 0 0-3.072 42.1376c3.072 4.5056 40.5504 45.056 100.096 90.112L103.5776 581.12a28.672 28.672 0 0 0 1.536 42.0864c3.072 5.9392 10.752 8.9088 18.432 8.9088a33.0752 33.0752 0 0 0 22.1184-8.9088l85.76-85.7088a616.3456 616.3456 0 0 0 142.1312 70.8608l-32.8192 106.9056c-4.6592 16.384 4.608 33.2288 22.016 37.7344h9.3184a29.952 29.952 0 0 0 29.696-22.784l32.8704-107.008a448.6144 448.6144 0 0 0 78.0288 7.424 448.512 448.512 0 0 0 78.0288-7.424l32.8704 105.472c3.072 13.4144 16.896 22.784 29.7472 22.784 3.072 0 6.144 0 7.68-1.4336a31.488 31.488 0 0 0 19.2-14.4384 29.5424 29.5424 0 0 0 2.8672-23.296l-32.8192-105.472c50.4832-17.3568 98.304-41.1648 142.1824-70.7584l84.1728 84.1728a31.8976 31.8976 0 0 0 50.7904-9.3184 29.9008 29.9008 0 0 0-5.12-32.768L842.752 498.3296a626.944 626.944 0 0 0 100.096-88.576z" p-id="2393" fill="#CECCCD"></path></svg>